<svg width="1800" height="335" viewBox="0 0 1800 335" fill="none" xmlns="http://www.w3.org/2000/svg">
<g clip-path="url(#clip0_2444_634)">
<path d="M49.94 51.1006L43.2825 139.79C214.235 58.1473 190.138 272.855 35.8442 302.064C32.971 303.828 35.1234 317.24 21.2978 316.889C6.85161 316.518 8.47343 302.996 8.89391 292.672C11.9674 214.828 29.8174 129.977 32.8809 55.8519C27.5749 57.8466 4.83935 68.6622 1.08513 62.4074C-2.93939 55.6915 5.18974 50.6696 9.82495 47.2415C30.5082 33.3887 153.336 -25.1096 163.398 12.3189C163.287 20.3579 157.561 24.638 150.233 25.8108C116.345 29.4494 81.6757 37.0674 49.93 51.1006H49.94ZM36.4349 276.073C161.976 233.392 152.655 100.056 42.1513 168.789C39.4182 203.712 34.7229 241.311 36.4349 276.073Z" fill="#7CB342"/>
<path d="M738.927 175.972C754.29 146.968 773.971 91.3591 807.796 105.338C841.051 143.662 807.916 218.126 810.255 268.13C807.256 285.173 787.865 286.041 785.356 267.53C784.447 231.479 801.599 180.172 795.641 143.559C766.735 124.564 743.575 247.168 731.62 271.194C724.903 288.454 710.13 284.33 706.102 267.454C708.891 228.887 721.815 182.164 709.921 176.419C698.026 170.675 692.588 201.977 685.761 217.436C677.025 241.73 660.043 292.654 633.544 285.364C606.647 279.696 622.599 204.211 640.731 237.658C630.656 283.437 656.584 243.99 661.572 226.896C670.008 206.675 668.929 215.177 676.086 194.394C694.737 123.325 728.812 132.377 738.907 175.947L738.927 175.972Z" fill="#7CB342"/>
<path d="M1368.53 225.006C1408.81 212.768 1393.46 245.454 1383.69 268.158C1380.96 274.248 1375.14 290.059 1367.01 287.696C1351.81 283.266 1370.28 256.021 1369.03 246.064C1325.14 238.552 1281.01 244.079 1236.86 244.863C1237.87 317.139 1206.06 289.185 1218.34 236.171C1222.83 213.841 1232.84 225.333 1249.44 220.562C1272.48 191.232 1274.03 154.617 1286.95 119.767C1274.9 117.65 1277.6 105.443 1287.69 101.527C1305.45 96.5231 1333.76 99.496 1351.89 101.27C1355.7 101.001 1359.19 96.2829 1364.56 99.0703C1367.03 100.343 1369.26 108.178 1369.03 110.96C1357.07 146.445 1372.01 187.641 1368.53 224.986L1368.53 225.006ZM1345.01 120.173C1332.74 120.627 1320.35 116.868 1308.45 120.269C1295.3 146.099 1284.17 188.465 1282.09 195.742C1280.02 203.018 1274.51 219.947 1275.5 221.736C1387.97 228.305 1338.15 249.795 1345.02 120.174L1345.01 120.173Z" fill="#7CB342"/>
<path d="M997.512 179.543C1122.62 217.036 923.823 343.501 940.005 211.721C930.283 217.26 891.447 233.265 900.223 208.223C897.981 199.505 922.267 197.323 929.055 193.941C961.374 184.108 961.844 130.181 989.91 107.682C1059.92 36.5694 1100.82 114.861 997.512 179.543ZM974.604 170.225C1000.17 155.431 1032.44 133.629 1042.54 105.056C1025.07 75.4133 979.741 153.052 974.604 170.225ZM973.392 200.222C957.247 201.608 960.306 228.234 965.452 238.868C1005.98 277.957 1044.39 179.219 973.392 200.222Z" fill="#7CB342"/>
<path d="M1704.54 104.395C1826.2 -3.8409 1836.14 304.564 1702.19 234.735L1696.84 321.757C1689.7 336.796 1672.4 334.982 1670.33 317.223C1675.34 243.617 1674.76 167.866 1680.11 94.0931C1687.49 76.0434 1706.91 88.3937 1704.54 104.406L1704.54 104.395ZM1734.66 107.506C1708.72 123.747 1688.52 213.792 1731.79 222.817C1787.25 235.626 1803.26 86.7938 1734.66 107.506Z" fill="#7CB342"/>
<path d="M1497.37 148.341C1632.73 207.492 1405.55 344.541 1433.82 186.117C1421.94 196.643 1385.91 201.793 1400.98 176.666C1408 169.251 1432.35 167.442 1441.57 159.242C1452.95 130.406 1472.32 76.7717 1504.95 66.7737C1570.03 62.8296 1530.14 130.839 1497.37 148.352L1497.37 148.341ZM1471.95 143.627C1488.54 130.846 1519.29 111.018 1518.78 88.4799C1498.57 74.6828 1474.04 127.869 1471.95 143.627ZM1461.23 175.605C1449.16 207.509 1458.76 255.04 1500.55 226.04C1537.87 195.981 1496.99 150.148 1461.23 175.605Z" fill="#7CB342"/>
<path d="M516.373 136.232C587.863 77.2222 638.56 196.905 595.842 250.322C515.632 355.43 446.524 198.048 516.373 136.232ZM541.721 256.807C588.213 255.805 605.413 180.146 571.204 153.142C515.271 115.132 488.271 242.684 541.721 256.807Z" fill="#7CB342"/>
<path d="M1078.14 128.194C1137.95 83.2486 1174.53 181.501 1138.14 222.984C1069.63 304.749 1019.55 175.459 1078.14 128.194ZM1094.24 226.246C1131.79 227.124 1148.39 166.798 1121.77 143.804C1078.01 111.156 1051.62 212.93 1094.24 226.246Z" fill="#7CB342"/>
<path d="M216.272 231.595C224.421 285.202 276.55 266.718 301.838 236.086C308.716 227.756 317.726 205.223 332.192 216.951C341.112 300.749 176.658 334.028 182.344 223.386C172.233 169.118 276.56 52.1208 302.048 142.745C305.693 182.81 251.912 224.128 216.272 231.595ZM215.741 203.79C263.575 195.299 303.891 114.669 251.412 140.019C232.51 153.23 218.324 181.246 215.741 203.79Z" fill="#7CB342"/>
<path d="M439.501 146.044L386.642 158.353C382.287 199.992 387.112 248.777 378.112 289.123C369.863 301.632 351.692 292.621 353.634 278.457C354.696 237.621 365.988 191.722 360.042 150.404C356.788 130.066 369.863 116.875 386.592 129.254C408.816 133.023 467.893 94.9332 470.566 133.925C470.205 143.057 464.359 162.273 462.327 172.537C459.854 185.006 461.666 207.299 443.125 204.703C423.353 201.926 438.24 158.453 439.511 146.054L439.501 146.044Z" fill="#7CB342"/>
<path d="M1592.24 109.428C1681.19 96.8861 1669.55 251.354 1587.14 247.507C1521.14 246.193 1540.37 126.991 1592.24 109.428ZM1602.25 127.747C1565.3 137.105 1547.82 239.072 1603.15 222.42C1642.6 212.385 1649.49 129.729 1602.25 127.747Z" fill="#7CB342"/>
</g>
<defs>
<clipPath id="clip0_2444_634">
<rect width="1800" height="335" fill="#7CB342"/>
</clipPath>
</defs>
</svg>
